inDegrees=no
num_controls=7
num_derivatives=13
num_iterations=123
num_multipliers=7
num_parameters=0
num_slacks=7
num_states=26
objective=5.309664
objective_accelerations=0.793612
objective_balance=0.025233
objective_effort=0.245549
objective_height=4.125296
objective_ligament=0.119972
solver_duration=1429.974271
status=Solve_Succeeded
success=true
DataType=double
version=3
OpenSimVersion=4.4-2022-07-23-0e9fedc
endheader
time	/jointset/ground_pelvis/pelvis_tilt/value	/jointset/ground_pelvis/pelvis_tx/value	/jointset/ground_pelvis/pelvis_ty/value	/jointset/hip_l/hip_flexion_l/value	/jointset/hip_l/hip_adduction_l/value	/jointset/hip_l/hip_rotation_l/value	/jointset/back/lumbar_extension/value	/jointset/patellofemoral_l/patellar_flexion_l/value	/jointset/knee_l/knee_flexion_l/value	/jointset/knee_l/knee_adduction_l/value	/jointset/knee_l/knee_rotation_l/value	/jointset/ankle_l/ankle_angle_l/value	/jointset/subtalar_l/subtalar_angle_l/value	/jointset/ground_pelvis/pelvis_tilt/speed	/jointset/ground_pelvis/pelvis_tx/speed	/jointset/ground_pelvis/pelvis_ty/speed	/jointset/hip_l/hip_flexion_l/speed	/jointset/hip_l/hip_adduction_l/speed	/jointset/hip_l/hip_rotation_l/speed	/jointset/back/lumbar_extension/speed	/jointset/patellofemoral_l/patellar_flexion_l/speed	/jointset/knee_l/knee_flexion_l/speed	/jointset/knee_l/knee_adduction_l/speed	/jointset/knee_l/knee_rotation_l/speed	/jointset/ankle_l/ankle_angle_l/speed	/jointset/subtalar_l/subtalar_angle_l/speed	/forceset/tau_hip_flexion_l	/forceset/tau_hip_adduction_l	/forceset/tau_hip_rotation_l	/forceset/tau_knee_flexion_l	/forceset/tau_ankle_angle_l	/forceset/tau_subtalar_angle_l	/forceset/tau_lumbar_extension	lambda_cid13_p0	lambda_cid13_p1	lambda_cid13_p2	lambda_cid13_p3	lambda_cid13_p4	lambda_cid13_p5	lambda_cid14_p0	/jointset/ground_pelvis/pelvis_tilt/accel	/jointset/ground_pelvis/pelvis_tx/accel	/jointset/ground_pelvis/pelvis_ty/accel	/jointset/hip_l/hip_flexion_l/accel	/jointset/hip_l/hip_adduction_l/accel	/jointset/hip_l/hip_rotation_l/accel	/jointset/back/lumbar_extension/accel	/jointset/patellofemoral_l/patellar_flexion_l/accel	/jointset/knee_l/knee_flexion_l/accel	/jointset/knee_l/knee_adduction_l/accel	/jointset/knee_l/knee_rotation_l/accel	/jointset/ankle_l/ankle_angle_l/accel	/jointset/subtalar_l/subtalar_angle_l/accel	gamma_cid13_p0	gamma_cid13_p1	gamma_cid13_p2	gamma_cid13_p3	gamma_cid13_p4	gamma_cid13_p5	gamma_cid14_p0
1	-0.8598578874448833	-0.1764979882734677	0.5664276679303151	2.181532418403044	-0.3262708296469382	0.0801104435594492	-0.436322298743576	1.183522731261572	1.183522731261223	0.01511168484266775	-0.1745167665071393	0.0004746172637042829	0.09407872796712567	-0.1719239219004029	0.008226866232577713	0.03884889388944372	0.006121114944324197	-0.009415454496979385	-0.05900497141024699	4.113165636671326e-05	-0.1726381186959138	-0.1726381186959219	-0.01107355722580214	-1.929119410077997e-05	-0.01900127078834824	-0.01468220805458025	-0.3981504823163584	-0.01636646244946849	-0.008190709166562251	-0.1509626446977622	0.1326507573900808	0.01384268376307023	0.2911229969582932	11.21025927019323	-3.652835826868658	-4.635271162679082	-5.676381498277213	-557.0300139235248	-67.59915496368258	-0.30343745956126	3.170561289038509	0.6860825078413844	2.066493429225455	-8.229777392345332	-0.3264788511183569	-1.450502845032246	-0.02796514514551758	-4.353837847748597	-4.353837847749538	-0.4318655487348081	-0.02930726638087743	0.4173048172667276	-0.1891065488108431	-9.873955990052307e-09	-5.935117162465437e-08	-1.647566561964913e-08	-6.200300117858317e-09	-1.287555098270185e-08	4.150519962731437e-08	-1.498849756703978e-08
1.01	-0.8614196557737164	-0.1763815401266826	0.5669191890405532	2.181183611670926	-0.3263803510155002	0.07944876414913182	-0.4363219000871841	1.181578646986446	1.181578646986632	0.01497984929765796	-0.1745169001883085	0.0003051193171285446	0.09392331405976427	-0.1404115846664509	0.0150643245093141	0.05943712673812369	-0.07585812094604556	-0.01247802030651203	-0.07332552640974087	3.988891845279557e-05	-0.2161705199408457	-0.2161705199408145	-0.01529027923509435	-7.019631290505173e-06	-0.01493268159036178	-0.0164000700748743	-0.3984276968085075	-0.01605237615398345	-0.008198211186317412	-0.149980242650829	0.1318249021979469	0.01398188243245064	0.2912174607764516	10.97748228575397	-3.705951674550899	-4.588630223122411	-5.645531626078697	-556.7192551937731	-67.50553329565382	-0.3191613897972143	3.144290905391435	0.6828086049078876	2.052254544596118	-8.178348909724155	-0.2945131890623118	-1.42204095361905	0.01398955516337993	-4.351705106823097	-4.351705106817016	-0.4161035394690288	0.0165581845545849	0.396476965882718	-0.1630361797911921	-9.01938726265174e-09	-7.07579596337016e-08	-2.448623829826903e-08	-1.536139729294111e-08	-1.723212366829313e-08	5.615008654886816e-08	-1.84530314817857e-08
1.02	-0.8626657565372097	-0.1761966711736677	0.5676160457456614	2.180015742135454	-0.3265201715907882	0.07864403736366085	-0.4363214751794391	1.179199485930078	1.179199485930768	0.01480594092994961	-0.1745168983905103	0.0001752754615435847	0.09375073950196926	-0.108790408839779	0.02191102747856456	0.0799160128635019	-0.1576914457300729	-0.01547529584375192	-0.08761444645765898	4.638191167636734e-05	-0.2596534749440547	-0.2596534749439824	-0.01948812174207225	7.804609215548903e-06	-0.01107045259963636	-0.0181143381412635	-0.3987049113005308	-0.01573828985832986	-0.008205713206805623	-0.148997840603881	0.1309990470058578	0.0141210811020263	0.2913119245947521	10.74171771256612	-3.759540333922894	-4.540775917686531	-5.635289867833556	-556.4828491436882	-67.40379647538171	-0.338969245606236	3.192329007582359	0.6879314463443286	2.044624084565156	-8.200595171076897	-0.3134207966598431	-1.444175854717153	-0.02641799891803599	-4.343948599403933	-4.343948599404531	-0.4280896482719408	-0.02879673084180727	0.3760327758147793	-0.1883877580298448	-7.960578209011797e-09	-8.175933391549055e-08	-3.271405421295983e-08	-2.43744542101328e-08	-2.106944112112202e-08	6.889244446439406e-08	-2.162012443211797e-08
1.03	-0.863595078915806	-0.1759432713881928	0.5685170604115675	2.178030418495017	-0.3266896249172553	0.07769662387434244	-0.4363210165907097	1.17638582258896	1.17638582258965	0.01459011586781706	-0.1745167639316976	8.293068962293697e-05	0.0935610249048586	-0.07705634381598299	0.02877193115345932	0.1002603172387932	-0.2393322737586275	-0.01840103760209751	-0.1018591984295581	4.215105801245618e-05	-0.3030638913109538	-0.3030638913108689	-0.02367368109217704	1.934885052858072e-05	-0.007441803545666682	-0.01982726502548984	-0.3985702251549142	-0.01534410683418868	-0.008198155257105497	-0.1479773503702167	0.1300740704670278	0.01433509386359128	0.2911641197115554	10.49661112469952	-3.845427033883899	-4.486125717186382	-5.606403120437762	-555.9143135808471	-67.33953987437673	-0.3632121617885533	3.166599267731123	0.6856133274498353	2.025338148910348	-8.139680312920644	-0.2799826432769599	-1.41328908353332	0.01209665519816454	-4.337287883670152	-4.337287883668242	-0.413333494631631	0.01616785105863044	0.3497804298163311	-0.162527910932638	-6.899685070410225e-09	-9.275657132251156e-08	-4.094408689536565e-08	-3.338600051244806e-08	-2.490146005116761e-08	8.161538881863397e-08	-2.478418227056847e-08
